<mxfile host="65bd71144e">
    <diagram id="rLTFirSggqk5s6QhS6uG" name="Page-1">
        <mxGraphModel dx="1465" dy="726" grid="0" gridSize="10" guides="1" tooltips="1" connect="1" arrows="1" fold="1" page="1" pageScale="1" pageWidth="827" pageHeight="1169" math="0" shadow="0">
            <root>
                <mxCell id="0"/>
                <mxCell id="1" parent="0"/>
                <mxCell id="65" value="&lt;b&gt;&lt;font data-font-src=&quot;https://fonts.googleapis.com/css?family=Alegreya+Sans&quot; face=&quot;Alegreya Sans&quot;&gt;Node&lt;/font&gt;&lt;/b&gt;" style="html=1;fontFamily=Alegreya;fontSource=https%3A%2F%2Ffonts.googleapis.com%2Fcss%3Ffamily%3DAlegreya;" parent="1" vertex="1">
                    <mxGeometry x="-560" y="60" width="80" height="40" as="geometry"/>
                </mxCell>
                <mxCell id="70" value="" style="endArrow=none;shadow=0;strokeWidth=1;rounded=0;endFill=0;elbow=vertical;entryX=1;entryY=0.5;entryDx=0;entryDy=0;" parent="1" source="65" target="65" edge="1">
                    <mxGeometry x="0.5" y="41" relative="1" as="geometry">
                        <mxPoint x="-520" y="-3" as="sourcePoint"/>
                        <mxPoint x="-470" y="27" as="targetPoint"/>
                        <mxPoint x="-40" y="32" as="offset"/>
                        <Array as="points">
                            <mxPoint x="-520" y="30"/>
                            <mxPoint x="-450" y="30"/>
                            <mxPoint x="-450" y="80"/>
                        </Array>
                    </mxGeometry>
                </mxCell>
                <mxCell id="71" value="0..1" style="resizable=0;align=right;verticalAlign=bottom;labelBackgroundColor=none;fontSize=12;fontFamily=Alegreya;spacingBottom=2;" parent="70" connectable="0" vertex="1">
                    <mxGeometry x="1" relative="1" as="geometry">
                        <mxPoint x="-46" y="-20" as="offset"/>
                    </mxGeometry>
                </mxCell>
                <mxCell id="72" value="next&amp;nbsp;" style="text;html=1;resizable=0;points=[];;align=center;verticalAlign=middle;labelBackgroundColor=none;rounded=0;shadow=0;strokeWidth=1;fontSize=12;fontFamily=Alegreya;rotation=0;" parent="70" vertex="1" connectable="0">
                    <mxGeometry relative="1" as="geometry">
                        <mxPoint x="-43" y="20" as="offset"/>
                    </mxGeometry>
                </mxCell>
                <mxCell id="77" value="" style="endArrow=none;shadow=0;strokeWidth=1;rounded=0;endFill=0;elbow=vertical;exitX=1;exitY=0.5;exitDx=0;exitDy=0;entryX=-0.004;entryY=0.315;entryDx=0;entryDy=0;entryPerimeter=0;" parent="1" source="87" target="65" edge="1">
                    <mxGeometry x="0.5" y="41" relative="1" as="geometry">
                        <mxPoint x="-630" y="80" as="sourcePoint"/>
                        <mxPoint x="-561" y="72" as="targetPoint"/>
                        <mxPoint x="-40" y="32" as="offset"/>
                    </mxGeometry>
                </mxCell>
                <mxCell id="78" value="0..1" style="resizable=0;align=right;verticalAlign=bottom;labelBackgroundColor=none;fontSize=12;fontFamily=Alegreya;spacingBottom=2;" parent="77" connectable="0" vertex="1">
                    <mxGeometry x="1" relative="1" as="geometry">
                        <mxPoint x="-2" y="18" as="offset"/>
                    </mxGeometry>
                </mxCell>
                <mxCell id="79" value="head&amp;nbsp;" style="text;html=1;resizable=0;points=[];;align=center;verticalAlign=middle;labelBackgroundColor=none;rounded=0;shadow=0;strokeWidth=1;fontSize=12;fontFamily=Alegreya;" parent="77" vertex="1" connectable="0">
                    <mxGeometry relative="1" as="geometry">
                        <mxPoint x="30" y="-11" as="offset"/>
                    </mxGeometry>
                </mxCell>
                <mxCell id="86" value="Queue" style="swimlane;fontStyle=1;align=center;verticalAlign=top;childLayout=stackLayout;horizontal=1;startSize=20;horizontalStack=0;resizeParent=1;resizeParentMax=0;resizeLast=0;collapsible=1;marginBottom=0;fontFamily=Alegreya Sans;fontSize=11;fontSource=https%3A%2F%2Ffonts.googleapis.com%2Fcss%3Ffamily%3DAlegreya%2BSans;spacing=0;" parent="1" vertex="1">
                    <mxGeometry x="-779" y="43" width="130" height="100" as="geometry">
                        <mxRectangle x="850" y="510" width="80" height="30" as="alternateBounds"/>
                    </mxGeometry>
                </mxCell>
                <mxCell id="87" value="- head: Node" style="text;strokeColor=none;fillColor=none;align=left;verticalAlign=middle;spacingLeft=3;spacingRight=4;overflow=hidden;rotatable=0;points=[[0,0.5],[1,0.5]];portConstraint=eastwest;fontFamily=Alegreya;fontSize=11;fontStyle=0;html=1;imageWidth=24;imageHeight=24;comic=0;imageAspect=0;" parent="86" vertex="1">
                    <mxGeometry y="20" width="130" height="18" as="geometry"/>
                </mxCell>
                <mxCell id="100" value="- tail: Node" style="text;strokeColor=none;fillColor=none;align=left;verticalAlign=middle;spacingLeft=3;spacingRight=4;overflow=hidden;rotatable=0;points=[[0,0.5],[1,0.5]];portConstraint=eastwest;fontFamily=Alegreya;fontSize=11;fontStyle=0;html=1;imageWidth=24;imageHeight=24;comic=0;imageAspect=0;" vertex="1" parent="86">
                    <mxGeometry y="38" width="130" height="18" as="geometry"/>
                </mxCell>
                <mxCell id="89" value="" style="line;strokeWidth=1;fillColor=none;align=left;verticalAlign=middle;spacingTop=-1;spacingLeft=3;spacingRight=3;rotatable=0;labelPosition=right;points=[];portConstraint=eastwest;strokeColor=inherit;fontFamily=Alegreya;fontSize=11;" parent="86" vertex="1">
                    <mxGeometry y="56" width="130" height="8" as="geometry"/>
                </mxCell>
                <mxCell id="90" value="enqueue(data: Data)" style="text;strokeColor=none;fillColor=none;align=left;verticalAlign=middle;spacingLeft=3;spacingRight=4;overflow=hidden;rotatable=0;points=[[0,0.5],[1,0.5]];portConstraint=eastwest;fontFamily=Alegreya;fontSize=11;fontStyle=0;imageWidth=24;imageHeight=24;comic=0;imageAspect=0;" parent="86" vertex="1">
                    <mxGeometry y="64" width="130" height="18" as="geometry"/>
                </mxCell>
                <mxCell id="91" value="dequeue(): Data" style="text;strokeColor=none;fillColor=none;align=left;verticalAlign=middle;spacingLeft=3;spacingRight=4;overflow=hidden;rotatable=0;points=[[0,0.5],[1,0.5]];portConstraint=eastwest;fontFamily=Alegreya;fontSize=11;fontStyle=0;imageWidth=24;imageHeight=24;comic=0;imageAspect=0;" parent="86" vertex="1">
                    <mxGeometry y="82" width="130" height="18" as="geometry"/>
                </mxCell>
                <mxCell id="93" value="&lt;b&gt;&lt;font data-font-src=&quot;https://fonts.googleapis.com/css?family=Alegreya+Sans&quot; face=&quot;Alegreya Sans&quot;&gt;Data&lt;/font&gt;&lt;/b&gt;" style="html=1;fontFamily=Alegreya;fontSource=https%3A%2F%2Ffonts.googleapis.com%2Fcss%3Ffamily%3DAlegreya;" parent="1" vertex="1">
                    <mxGeometry x="-560" y="140" width="80" height="40" as="geometry"/>
                </mxCell>
                <mxCell id="97" value="" style="endArrow=none;html=1;rounded=0;align=center;verticalAlign=top;endFill=0;labelBackgroundColor=none;fontFamily=Alegreya;fontSource=https%3A%2F%2Ffonts.googleapis.com%2Fcss%3Ffamily%3DAlegreya;" parent="1" source="93" target="65" edge="1">
                    <mxGeometry relative="1" as="geometry">
                        <mxPoint x="-590" y="340" as="sourcePoint"/>
                        <mxPoint x="-430" y="340" as="targetPoint"/>
                    </mxGeometry>
                </mxCell>
                <mxCell id="98" value="data" style="resizable=0;html=1;align=left;verticalAlign=bottom;labelBackgroundColor=none;fontFamily=Alegreya;fontSource=https%3A%2F%2Ffonts.googleapis.com%2Fcss%3Ffamily%3DAlegreya;" parent="97" connectable="0" vertex="1">
                    <mxGeometry x="-1" relative="1" as="geometry">
                        <mxPoint x="3" y="-2" as="offset"/>
                    </mxGeometry>
                </mxCell>
                <mxCell id="99" value="1" style="resizable=0;html=1;align=left;verticalAlign=top;labelBackgroundColor=none;fontFamily=Alegreya;fontSource=https%3A%2F%2Ffonts.googleapis.com%2Fcss%3Ffamily%3DAlegreya;" parent="97" connectable="0" vertex="1">
                    <mxGeometry x="-1" relative="1" as="geometry">
                        <mxPoint x="-11" y="-25" as="offset"/>
                    </mxGeometry>
                </mxCell>
                <mxCell id="101" value="" style="endArrow=none;shadow=0;strokeWidth=1;rounded=0;endFill=0;elbow=vertical;exitX=1;exitY=0.5;exitDx=0;exitDy=0;entryX=0;entryY=0.75;entryDx=0;entryDy=0;" edge="1" parent="1" source="100" target="65">
                    <mxGeometry x="0.5" y="41" relative="1" as="geometry">
                        <mxPoint x="-640.9999999999999" y="92" as="sourcePoint"/>
                        <mxPoint x="-550" y="90.61068702290072" as="targetPoint"/>
                        <mxPoint x="-40" y="32" as="offset"/>
                    </mxGeometry>
                </mxCell>
                <mxCell id="103" value="tail" style="text;html=1;resizable=0;points=[];;align=center;verticalAlign=middle;labelBackgroundColor=none;rounded=0;shadow=0;strokeWidth=1;fontSize=12;fontFamily=Alegreya;" vertex="1" connectable="0" parent="101">
                    <mxGeometry relative="1" as="geometry">
                        <mxPoint x="31" y="10" as="offset"/>
                    </mxGeometry>
                </mxCell>
            </root>
        </mxGraphModel>
    </diagram>
</mxfile>
